<svg xmlns="http://www.w3.org/2000/svg" xmlns:xlink="http://www.w3.org/1999/xlink" width="500" zoomAndPan="magnify" viewBox="0 0 375 374.999991" height="500" preserveAspectRatio="xMidYMid meet" version="1.0"><defs><g/><clipPath id="38567077f8"><rect x="0" width="343" y="0" height="113"/></clipPath><clipPath id="5c6b9d735a"><path d="M 115.84375 214.039062 L 139.378906 214.039062 L 139.378906 233.535156 L 115.84375 233.535156 Z M 115.84375 214.039062 " clip-rule="nonzero"/></clipPath><clipPath id="aec0664c47"><path d="M 139.375 219.9375 C 139.21875 216.304688 136.652344 214.039062 133.289062 214.039062 C 130.734375 214.039062 128.367188 215.5625 127.378906 217.722656 C 126.425781 215.5625 124.152344 214.039062 121.695312 214.039062 C 118.464844 214.039062 115.992188 216.304688 115.84375 219.9375 C 115.84375 227.476562 121.675781 231.171875 127.378906 233.535156 C 133.308594 231.171875 139.375 227.476562 139.375 219.9375 Z M 139.375 219.9375 " clip-rule="nonzero"/></clipPath><clipPath id="16acdfa51b"><path d="M 0.84375 0.0390625 L 24.378906 0.0390625 L 24.378906 19.535156 L 0.84375 19.535156 Z M 0.84375 0.0390625 " clip-rule="nonzero"/></clipPath><clipPath id="4ff1910645"><path d="M 24.375 5.9375 C 24.21875 2.304688 21.652344 0.0390625 18.289062 0.0390625 C 15.734375 0.0390625 13.367188 1.5625 12.378906 3.722656 C 11.425781 1.5625 9.152344 0.0390625 6.695312 0.0390625 C 3.464844 0.0390625 0.992188 2.304688 0.84375 5.9375 C 0.84375 13.476562 6.675781 17.171875 12.378906 19.535156 C 18.308594 17.171875 24.375 13.476562 24.375 5.9375 Z M 24.375 5.9375 " clip-rule="nonzero"/></clipPath><clipPath id="a2e4a0429c"><rect x="0" width="25" y="0" height="20"/></clipPath><clipPath id="19a693ff03"><path d="M 100.847656 7.621094 L 280.847656 7.621094 L 280.847656 213.871094 L 100.847656 213.871094 Z M 100.847656 7.621094 " clip-rule="nonzero"/></clipPath><clipPath id="dd58fe4325"><path d="M 269.695312 110.28125 C 267.671875 108.097656 267.429688 106.117188 267.105469 103.085938 C 266.664062 99.605469 266.339844 96.898438 266.417969 92.734375 C 264.882812 53.027344 238.109375 34.265625 215.054688 30.019531 C 214.851562 29.65625 214.488281 29.332031 214.042969 29.292969 L 201.953125 28.039062 L 203.285156 15.464844 C 203.449219 14.253906 201.828125 13.445312 200.980469 14.375 C 197.988281 17.367188 194.953125 20.359375 191.960938 23.351562 C 185.976562 13.078125 170.285156 11.703125 162.519531 20.722656 L 163.730469 9.117188 C 163.894531 7.90625 162.277344 7.09375 161.425781 8.027344 L 151.71875 17.6875 C 142.941406 11.664062 130.121094 15.101562 125.269531 24.480469 C 121.871094 21.125 118.554688 17.769531 115.15625 14.414062 C 114.308594 13.523438 112.691406 14.292969 112.851562 15.503906 L 114.1875 28.082031 L 102.09375 29.332031 C 100.960938 29.414062 100.476562 30.910156 101.324219 31.679688 L 111.597656 41.34375 C 111.519531 41.421875 111.476562 41.464844 111.476562 41.464844 C 101.164062 48.582031 101.082031 64.875 111.234375 72.191406 C 112.570312 79.269531 118.03125 84.769531 125.105469 86.101562 C 128.058594 91.84375 133.679688 95.523438 139.910156 96.089844 C 140.636719 111.816406 147.027344 126.617188 157.988281 137.898438 C 159 138.949219 159.648438 140.121094 159.96875 141.292969 C 163.285156 159.8125 159.648438 169.554688 150.75 192.078125 C 146.257812 202.832031 141.851562 211.851562 141.8125 211.929688 C 141.367188 212.78125 142.054688 213.910156 143.023438 213.871094 L 222.78125 213.871094 C 223.546875 213.871094 224.15625 213.265625 224.15625 212.496094 L 224.15625 190.984375 C 224.15625 186.375 225.976562 182.253906 229.128906 179.664062 C 231.515625 177.722656 234.308594 176.671875 237.421875 176.511719 C 252.789062 180.554688 264.558594 179.382812 267.472656 173.558594 C 268.199219 172.105469 268.359375 170.40625 267.996094 168.464844 C 267.996094 168.425781 267.1875 163.25 269.855469 161.066406 C 271.3125 160.136719 271.273438 157.789062 269.9375 156.738281 L 262.335938 149.988281 L 269.292969 146.46875 C 272.6875 145.011719 270.34375 139.757812 272.851562 137.492188 L 279.726562 131.265625 C 279.929688 131.105469 280.738281 130.253906 280.816406 128.394531 C 281.019531 124.148438 277.257812 118.042969 269.695312 110.28125 Z M 192.648438 26.464844 C 195.15625 23.957031 197.664062 21.488281 200.210938 18.941406 L 199.160156 29.089844 C 199.121094 29.457031 199.242188 29.820312 199.445312 30.101562 C 199.6875 30.386719 200.011719 30.546875 200.375 30.585938 L 210.847656 31.679688 C 206.886719 35.398438 197.582031 44.171875 193.539062 48.015625 L 198.148438 37.179688 C 198.511719 36.410156 197.988281 35.4375 197.136719 35.316406 C 193.378906 34.589844 189.65625 33.863281 185.894531 33.132812 C 188.199219 30.910156 190.425781 28.648438 192.648438 26.464844 Z M 176.230469 17.285156 C 181.972656 17.285156 187.148438 20.316406 189.980469 25.210938 C 187.390625 27.796875 184.804688 30.386719 182.175781 32.972656 C 181.808594 33.335938 181.6875 33.863281 181.808594 34.347656 C 181.972656 34.832031 182.375 35.195312 182.863281 35.277344 C 186.90625 36.046875 190.910156 36.855469 194.953125 37.621094 L 188.363281 52.90625 C 187.753906 54.199219 189.535156 55.414062 190.546875 54.441406 C 190.546875 54.441406 204.335938 41.464844 204.335938 41.464844 C 204.335938 42.191406 204.214844 43 204.863281 43.527344 C 209.152344 46.71875 211.578125 51.570312 211.578125 56.828125 C 211.578125 62.085938 209.027344 67.058594 204.78125 70.132812 C 204.378906 70.332031 201.019531 71.789062 196.816406 71.789062 C 196.046875 71.789062 195.441406 72.394531 195.441406 73.164062 C 195.441406 73.933594 196.046875 74.539062 196.816406 74.539062 C 199.523438 74.539062 201.871094 74.011719 203.527344 73.488281 C 201.992188 78.054688 198.230469 81.65625 193.578125 83.03125 C 193.984375 81.855469 192.285156 75.710938 189.65625 77.691406 C 189.128906 78.21875 189.171875 79.105469 189.695312 79.59375 C 191.515625 81.332031 190.789062 83.757812 190.628906 84.203125 C 186.339844 94.027344 172.347656 96.535156 164.90625 88.769531 C 161.871094 85.738281 160.210938 81.734375 160.210938 77.488281 L 160.210938 39.363281 L 175.136719 25.289062 C 175.984375 24.5625 175.460938 23.027344 174.367188 22.945312 L 164.945312 21.933594 C 167.976562 18.984375 172.023438 17.285156 176.230469 17.285156 Z M 152.851562 20.277344 L 160.617188 12.554688 L 159.566406 22.703125 C 159.484375 23.429688 160.011719 24.117188 160.738281 24.199219 C 161.386719 24.28125 170.324219 25.25 171.214844 25.332031 L 153.902344 41.667969 L 158.59375 30.828125 C 158.757812 30.464844 158.757812 30.019531 158.554688 29.65625 C 158.351562 29.292969 158.027344 29.050781 157.625 28.96875 L 146.339844 26.785156 C 148.523438 24.601562 150.707031 22.460938 152.851562 20.277344 Z M 105.289062 31.679688 L 115.765625 30.585938 C 116.492188 30.507812 117.058594 29.859375 116.976562 29.089844 L 115.925781 18.941406 C 120.375 23.390625 125.671875 28.648438 130.203125 33.132812 C 126.441406 33.863281 122.722656 34.589844 118.960938 35.316406 C 118.109375 35.4375 117.625 36.410156 117.949219 37.179688 L 122.640625 48.015625 C 118.351562 43.972656 109.617188 35.722656 105.289062 31.679688 Z M 127.25 84.324219 C 127.210938 84.203125 126.199219 81.492188 128.140625 79.59375 C 129.433594 78.378906 127.535156 76.398438 126.28125 77.609375 C 124.460938 79.351562 124.175781 81.410156 124.257812 82.988281 C 119.566406 81.65625 115.84375 78.097656 114.308594 73.445312 C 115.964844 73.933594 118.3125 74.457031 121.023438 74.457031 C 121.789062 74.457031 122.398438 73.851562 122.398438 73.082031 C 122.398438 72.316406 121.789062 71.707031 121.023438 71.707031 C 117.019531 71.707031 113.78125 70.375 113.136719 70.089844 C 103.914062 63.824219 104.117188 49.347656 113.582031 43.164062 L 125.550781 54.441406 C 125.835938 54.6875 126.199219 54.808594 126.5625 54.808594 C 127.492188 54.808594 128.140625 53.753906 127.734375 52.945312 C 127.414062 52.179688 121.265625 37.945312 121.144531 37.664062 C 125.1875 36.894531 129.191406 36.125 133.238281 35.316406 C 134.289062 35.15625 134.691406 33.742188 133.925781 33.011719 L 127.25 26.382812 C 131.050781 18.09375 142.011719 14.695312 149.777344 19.550781 C 147.390625 21.933594 145.003906 24.28125 142.621094 26.664062 C 142.253906 27.027344 142.132812 27.554688 142.253906 28.039062 C 142.417969 28.523438 142.820312 28.890625 143.308594 28.96875 L 155.441406 31.316406 L 148.847656 46.597656 C 148.242188 47.894531 150.019531 49.105469 151.03125 48.136719 C 151.03125 48.136719 157.625 41.949219 157.625 41.949219 L 157.625 77.53125 C 157.828125 86.222656 150.0625 93.824219 141.40625 93.460938 C 135.300781 93.300781 129.878906 89.820312 127.25 84.324219 Z M 277.90625 129.324219 L 271.070312 135.511719 C 269.980469 136.523438 269.25 137.898438 269.046875 139.351562 C 268.726562 140.648438 268.925781 143.074219 268.238281 144.003906 L 261.203125 147.519531 C 259.421875 148.25 259.097656 150.917969 260.59375 152.050781 L 268.238281 158.882812 C 264.234375 162.117188 265.289062 168.625 265.328125 168.910156 C 265.570312 170.285156 265.488281 171.417969 265.042969 172.347656 C 262.820312 176.875 251.496094 177.441406 237.867188 173.800781 C 226.785156 171.539062 218.128906 164.90625 211.457031 153.542969 C 210.566406 152.007812 208.21875 153.382812 209.109375 154.917969 C 215.097656 165.070312 222.617188 171.660156 231.921875 174.894531 C 225.410156 177.359375 221.40625 183.585938 221.445312 190.90625 L 221.445312 211.039062 L 145.167969 211.039062 C 154.953125 190.175781 168.261719 161.066406 162.558594 140.523438 C 162.152344 138.867188 161.265625 137.289062 159.890625 135.875 C 149.414062 125.121094 143.265625 111.007812 142.539062 96.046875 C 149.699219 95.765625 156.332031 91.117188 158.960938 84.445312 C 164.660156 99.082031 185.855469 99.972656 192.851562 85.941406 C 199.765625 84.648438 205.46875 79.027344 206.765625 72.03125 C 216.59375 64.957031 216.792969 48.984375 207.085938 41.746094 C 207.085938 40.777344 206.964844 39.925781 206.84375 38.996094 L 213.882812 32.40625 C 241.628906 36.855469 265.042969 60.105469 264.074219 100.699219 C 264.722656 104.902344 264.355469 108.421875 267.714844 112.019531 C 280.128906 124.917969 278.066406 129.042969 277.90625 129.324219 Z M 277.90625 129.324219 " clip-rule="nonzero"/></clipPath><linearGradient x1="33.421969" gradientTransform="matrix(0.404443, 0, 0, 0.404332, 87.332125, 7.17655)" y1="256" x2="478.478001" gradientUnits="userSpaceOnUse" y2="256" id="fe62b62e84"><stop stop-opacity="1" stop-color="rgb(81.568909%, 49.01886%, 100%)" offset="0"/><stop stop-opacity="1" stop-color="rgb(77.253723%, 53.552246%, 98.982239%)" offset="0.00390625"/><stop stop-opacity="1" stop-color="rgb(72.938538%, 58.085632%, 97.964478%)" offset="0.0078125"/><stop stop-opacity="1" stop-color="rgb(72.738647%, 58.306885%, 97.926331%)" offset="0.0117188"/><stop stop-opacity="1" stop-color="rgb(72.540283%, 58.529663%, 97.888184%)" offset="0.015625"/><stop stop-opacity="1" stop-color="rgb(72.340393%, 58.750916%, 97.848511%)" offset="0.0195312"/><stop stop-opacity="1" stop-color="rgb(72.142029%, 58.973694%, 97.810364%)" offset="0.0234375"/><stop stop-opacity="1" stop-color="rgb(71.942139%, 59.194946%, 97.772217%)" offset="0.0273437"/><stop stop-opacity="1" stop-color="rgb(71.743774%, 59.417725%, 97.73407%)" offset="0.03125"/><stop stop-opacity="1" stop-color="rgb(71.543884%, 59.638977%, 97.695923%)" offset="0.0351562"/><stop stop-opacity="1" stop-color="rgb(71.34552%, 59.861755%, 97.657776%)" offset="0.0390625"/><stop stop-opacity="1" stop-color="rgb(71.14563%, 60.083008%, 97.619629%)" offset="0.0429687"/><stop stop-opacity="1" stop-color="rgb(70.947266%, 60.305786%, 97.581482%)" offset="0.046875"/><stop stop-opacity="1" stop-color="rgb(70.748901%, 60.527039%, 97.543335%)" offset="0.0507812"/><stop stop-opacity="1" stop-color="rgb(70.550537%, 60.749817%, 97.505188%)" offset="0.0546875"/><stop stop-opacity="1" stop-color="rgb(70.350647%, 60.972595%, 97.465515%)" offset="0.0585937"/><stop stop-opacity="1" stop-color="rgb(70.152283%, 61.195374%, 97.427368%)" offset="0.0625"/><stop stop-opacity="1" stop-color="rgb(69.952393%, 61.416626%, 97.389221%)" offset="0.0664062"/><stop stop-opacity="1" stop-color="rgb(69.754028%, 61.639404%, 97.351074%)" offset="0.0703125"/><stop stop-opacity="1" stop-color="rgb(69.554138%, 61.860657%, 97.312927%)" offset="0.0742188"/><stop stop-opacity="1" stop-color="rgb(69.355774%, 62.083435%, 97.27478%)" offset="0.078125"/><stop stop-opacity="1" stop-color="rgb(69.155884%, 62.304688%, 97.236633%)" offset="0.0820312"/><stop stop-opacity="1" stop-color="rgb(68.95752%, 62.527466%, 97.198486%)" offset="0.0859375"/><stop stop-opacity="1" stop-color="rgb(68.757629%, 62.748718%, 97.160339%)" offset="0.0898437"/><stop stop-opacity="1" stop-color="rgb(68.559265%, 62.971497%, 97.122192%)" offset="0.09375"/><stop stop-opacity="1" stop-color="rgb(68.359375%, 63.192749%, 97.084045%)" offset="0.0976562"/><stop stop-opacity="1" stop-color="rgb(68.161011%, 63.415527%, 97.045898%)" offset="0.101562"/><stop stop-opacity="1" stop-color="rgb(67.961121%, 63.63678%, 97.006226%)" offset="0.105469"/><stop stop-opacity="1" stop-color="rgb(67.762756%, 63.859558%, 96.968079%)" offset="0.109375"/><stop stop-opacity="1" stop-color="rgb(67.562866%, 64.080811%, 96.929932%)" offset="0.113281"/><stop stop-opacity="1" stop-color="rgb(67.364502%, 64.303589%, 96.891785%)" offset="0.117188"/><stop stop-opacity="1" stop-color="rgb(67.166138%, 64.524841%, 96.853638%)" offset="0.121094"/><stop stop-opacity="1" stop-color="rgb(66.967773%, 64.74762%, 96.815491%)" offset="0.125"/><stop stop-opacity="1" stop-color="rgb(66.767883%, 64.968872%, 96.777344%)" offset="0.128906"/><stop stop-opacity="1" stop-color="rgb(66.569519%, 65.19165%, 96.739197%)" offset="0.132812"/><stop stop-opacity="1" stop-color="rgb(66.369629%, 65.414429%, 96.70105%)" offset="0.136719"/><stop stop-opacity="1" stop-color="rgb(66.171265%, 65.637207%, 96.662903%)" offset="0.140625"/><stop stop-opacity="1" stop-color="rgb(65.971375%, 65.858459%, 96.62323%)" offset="0.144531"/><stop stop-opacity="1" stop-color="rgb(65.77301%, 66.081238%, 96.585083%)" offset="0.148438"/><stop stop-opacity="1" stop-color="rgb(65.57312%, 66.30249%, 96.546936%)" offset="0.152344"/><stop stop-opacity="1" stop-color="rgb(65.374756%, 66.525269%, 96.508789%)" offset="0.15625"/><stop stop-opacity="1" stop-color="rgb(65.174866%, 66.746521%, 96.470642%)" offset="0.160156"/><stop stop-opacity="1" stop-color="rgb(64.976501%, 66.969299%, 96.432495%)" offset="0.164062"/><stop stop-opacity="1" stop-color="rgb(64.776611%, 67.190552%, 96.394348%)" offset="0.167969"/><stop stop-opacity="1" stop-color="rgb(64.578247%, 67.41333%, 96.356201%)" offset="0.171875"/><stop stop-opacity="1" stop-color="rgb(64.378357%, 67.634583%, 96.318054%)" offset="0.175781"/><stop stop-opacity="1" stop-color="rgb(64.179993%, 67.857361%, 96.279907%)" offset="0.179687"/><stop stop-opacity="1" stop-color="rgb(63.980103%, 68.078613%, 96.24176%)" offset="0.183594"/><stop stop-opacity="1" stop-color="rgb(63.781738%, 68.301392%, 96.203613%)" offset="0.1875"/><stop stop-opacity="1" stop-color="rgb(63.583374%, 68.522644%, 96.16394%)" offset="0.191406"/><stop stop-opacity="1" stop-color="rgb(63.38501%, 68.745422%, 96.125793%)" offset="0.195312"/><stop stop-opacity="1" stop-color="rgb(63.221741%, 68.927002%, 96.095276%)" offset="0.203125"/><stop stop-opacity="1" stop-color="rgb(62.956238%, 69.229126%, 96.044922%)" offset="0.210937"/><stop stop-opacity="1" stop-color="rgb(62.748718%, 69.467163%, 96.006775%)" offset="0.21875"/><stop stop-opacity="1" stop-color="rgb(62.542725%, 69.703674%, 95.968628%)" offset="0.226562"/><stop stop-opacity="1" stop-color="rgb(62.335205%, 69.941711%, 95.930481%)" offset="0.234375"/><stop stop-opacity="1" stop-color="rgb(62.129211%, 70.179749%, 95.890808%)" offset="0.242187"/><stop stop-opacity="1" stop-color="rgb(61.921692%, 70.41626%, 95.852661%)" offset="0.25"/><stop stop-opacity="1" stop-color="rgb(61.714172%, 70.654297%, 95.814514%)" offset="0.257812"/><stop stop-opacity="1" stop-color="rgb(61.508179%, 70.890808%, 95.776367%)" offset="0.265625"/><stop stop-opacity="1" stop-color="rgb(61.300659%, 71.128845%, 95.73822%)" offset="0.273438"/><stop stop-opacity="1" stop-color="rgb(61.094666%, 71.366882%, 95.700073%)" offset="0.28125"/><stop stop-opacity="1" stop-color="rgb(60.887146%, 71.603394%, 95.661926%)" offset="0.289062"/><stop stop-opacity="1" stop-color="rgb(60.681152%, 71.841431%, 95.623779%)" offset="0.296875"/><stop stop-opacity="1" stop-color="rgb(60.473633%, 72.079468%, 95.585632%)" offset="0.304687"/><stop stop-opacity="1" stop-color="rgb(60.267639%, 72.315979%, 95.547485%)" offset="0.3125"/><stop stop-opacity="1" stop-color="rgb(60.06012%, 72.554016%, 95.509338%)" offset="0.320312"/><stop stop-opacity="1" stop-color="rgb(59.8526%, 72.792053%, 95.471191%)" offset="0.328125"/><stop stop-opacity="1" stop-color="rgb(59.646606%, 73.028564%, 95.431519%)" offset="0.335938"/><stop stop-opacity="1" stop-color="rgb(59.439087%, 73.266602%, 95.393372%)" offset="0.34375"/><stop stop-opacity="1" stop-color="rgb(59.233093%, 73.504639%, 95.355225%)" offset="0.351562"/><stop stop-opacity="1" stop-color="rgb(59.025574%, 73.74115%, 95.317078%)" offset="0.359375"/><stop stop-opacity="1" stop-color="rgb(58.81958%, 73.979187%, 95.278931%)" offset="0.367188"/><stop stop-opacity="1" stop-color="rgb(58.612061%, 74.217224%, 95.240784%)" offset="0.375"/><stop stop-opacity="1" stop-color="rgb(58.406067%, 74.453735%, 95.202637%)" offset="0.382812"/><stop stop-opacity="1" stop-color="rgb(58.198547%, 74.691772%, 95.16449%)" offset="0.390625"/><stop stop-opacity="1" stop-color="rgb(57.991028%, 74.92981%, 95.126343%)" offset="0.398438"/><stop stop-opacity="1" stop-color="rgb(57.785034%, 75.166321%, 95.088196%)" offset="0.40625"/><stop stop-opacity="1" stop-color="rgb(57.577515%, 75.404358%, 95.050049%)" offset="0.414062"/><stop stop-opacity="1" stop-color="rgb(57.371521%, 75.642395%, 95.010376%)" offset="0.421875"/><stop stop-opacity="1" stop-color="rgb(57.164001%, 75.878906%, 94.972229%)" offset="0.429688"/><stop stop-opacity="1" stop-color="rgb(56.958008%, 76.116943%, 94.934082%)" offset="0.4375"/><stop stop-opacity="1" stop-color="rgb(56.750488%, 76.35498%, 94.895935%)" offset="0.445312"/><stop stop-opacity="1" stop-color="rgb(56.544495%, 76.591492%, 94.857788%)" offset="0.453125"/><stop stop-opacity="1" stop-color="rgb(56.336975%, 76.829529%, 94.819641%)" offset="0.460938"/><stop stop-opacity="1" stop-color="rgb(56.129456%, 77.06604%, 94.781494%)" offset="0.46875"/><stop stop-opacity="1" stop-color="rgb(55.923462%, 77.304077%, 94.743347%)" offset="0.476562"/><stop stop-opacity="1" stop-color="rgb(55.715942%, 77.542114%, 94.7052%)" offset="0.484375"/><stop stop-opacity="1" stop-color="rgb(55.509949%, 77.778625%, 94.667053%)" offset="0.492187"/><stop stop-opacity="1" stop-color="rgb(55.302429%, 78.016663%, 94.628906%)" offset="0.5"/><stop stop-opacity="1" stop-color="rgb(55.096436%, 78.2547%, 94.589233%)" offset="0.507812"/><stop stop-opacity="1" stop-color="rgb(54.888916%, 78.491211%, 94.551086%)" offset="0.515625"/><stop stop-opacity="1" stop-color="rgb(54.682922%, 78.729248%, 94.512939%)" offset="0.523437"/><stop stop-opacity="1" stop-color="rgb(54.475403%, 78.967285%, 94.474792%)" offset="0.53125"/><stop stop-opacity="1" stop-color="rgb(54.267883%, 79.203796%, 94.436646%)" offset="0.539062"/><stop stop-opacity="1" stop-color="rgb(54.06189%, 79.441833%, 94.398499%)" offset="0.546875"/><stop stop-opacity="1" stop-color="rgb(53.85437%, 79.679871%, 94.360352%)" offset="0.554688"/><stop stop-opacity="1" stop-color="rgb(53.648376%, 79.916382%, 94.322205%)" offset="0.5625"/><stop stop-opacity="1" stop-color="rgb(53.440857%, 80.154419%, 94.284058%)" offset="0.570312"/><stop stop-opacity="1" stop-color="rgb(53.234863%, 80.392456%, 94.245911%)" offset="0.578125"/><stop stop-opacity="1" stop-color="rgb(53.027344%, 80.628967%, 94.207764%)" offset="0.585938"/><stop stop-opacity="1" stop-color="rgb(52.82135%, 80.867004%, 94.168091%)" offset="0.59375"/><stop stop-opacity="1" stop-color="rgb(52.609253%, 81.109619%, 94.129944%)" offset="0.601562"/><stop stop-opacity="1" stop-color="rgb(52.36969%, 81.378174%, 94.087219%)" offset="0.609375"/><stop stop-opacity="1" stop-color="rgb(52.108765%, 81.669617%, 94.041443%)" offset="0.617188"/><stop stop-opacity="1" stop-color="rgb(51.849365%, 81.96106%, 93.995667%)" offset="0.625"/><stop stop-opacity="1" stop-color="rgb(51.58844%, 82.250977%, 93.94989%)" offset="0.632812"/><stop stop-opacity="1" stop-color="rgb(51.327515%, 82.542419%, 93.902588%)" offset="0.640625"/><stop stop-opacity="1" stop-color="rgb(51.066589%, 82.833862%, 93.856812%)" offset="0.648438"/><stop stop-opacity="1" stop-color="rgb(50.80719%, 83.125305%, 93.811035%)" offset="0.65625"/><stop stop-opacity="1" stop-color="rgb(50.546265%, 83.415222%, 93.765259%)" offset="0.664062"/><stop stop-opacity="1" stop-color="rgb(50.285339%, 83.706665%, 93.717957%)" offset="0.671875"/><stop stop-opacity="1" stop-color="rgb(50.024414%, 83.998108%, 93.67218%)" offset="0.679687"/><stop stop-opacity="1" stop-color="rgb(49.765015%, 84.288025%, 93.626404%)" offset="0.6875"/><stop stop-opacity="1" stop-color="rgb(49.504089%, 84.579468%, 93.580627%)" offset="0.695312"/><stop stop-opacity="1" stop-color="rgb(49.243164%, 84.870911%, 93.534851%)" offset="0.703125"/><stop stop-opacity="1" stop-color="rgb(48.982239%, 85.162354%, 93.487549%)" offset="0.710938"/><stop stop-opacity="1" stop-color="rgb(48.721313%, 85.452271%, 93.441772%)" offset="0.71875"/><stop stop-opacity="1" stop-color="rgb(48.461914%, 85.743713%, 93.395996%)" offset="0.726562"/><stop stop-opacity="1" stop-color="rgb(48.200989%, 86.035156%, 93.35022%)" offset="0.734375"/><stop stop-opacity="1" stop-color="rgb(47.940063%, 86.326599%, 93.304443%)" offset="0.742188"/><stop stop-opacity="1" stop-color="rgb(47.679138%, 86.616516%, 93.257141%)" offset="0.75"/><stop stop-opacity="1" stop-color="rgb(47.419739%, 86.907959%, 93.211365%)" offset="0.757812"/><stop stop-opacity="1" stop-color="rgb(47.158813%, 87.199402%, 93.165588%)" offset="0.765625"/><stop stop-opacity="1" stop-color="rgb(46.897888%, 87.489319%, 93.119812%)" offset="0.773438"/><stop stop-opacity="1" stop-color="rgb(46.636963%, 87.780762%, 93.074036%)" offset="0.78125"/><stop stop-opacity="1" stop-color="rgb(46.377563%, 88.072205%, 93.026733%)" offset="0.789062"/><stop stop-opacity="1" stop-color="rgb(46.116638%, 88.363647%, 92.980957%)" offset="0.796875"/><stop stop-opacity="1" stop-color="rgb(45.872498%, 88.653564%, 92.936707%)" offset="0.8125"/><stop stop-opacity="1" stop-color="rgb(45.680237%, 88.905334%, 92.900085%)" offset="0.828125"/><stop stop-opacity="1" stop-color="rgb(45.527649%, 89.120483%, 92.869568%)" offset="0.84375"/><stop stop-opacity="1" stop-color="rgb(45.375061%, 89.334106%, 92.83905%)" offset="0.859375"/><stop stop-opacity="1" stop-color="rgb(45.220947%, 89.547729%, 92.808533%)" offset="0.875"/><stop stop-opacity="1" stop-color="rgb(45.068359%, 89.762878%, 92.778015%)" offset="0.890625"/><stop stop-opacity="1" stop-color="rgb(44.915771%, 89.976501%, 92.747498%)" offset="0.90625"/><stop stop-opacity="1" stop-color="rgb(44.761658%, 90.190125%, 92.71698%)" offset="0.921875"/><stop stop-opacity="1" stop-color="rgb(44.60907%, 90.403748%, 92.686462%)" offset="0.9375"/><stop stop-opacity="1" stop-color="rgb(44.456482%, 90.618896%, 92.655945%)" offset="0.953125"/><stop stop-opacity="1" stop-color="rgb(44.302368%, 90.83252%, 92.625427%)" offset="0.96875"/><stop stop-opacity="1" stop-color="rgb(44.14978%, 91.046143%, 92.59491%)" offset="0.984375"/><stop stop-opacity="1" stop-color="rgb(43.997192%, 91.261292%, 92.564392%)" offset="1"/></linearGradient><clipPath id="e9521a23d1"><rect x="0" width="375" y="0" height="99"/></clipPath></defs><g transform="matrix(1, 0, 0, 1, 16, 195)"><g clip-path="url(#38567077f8)"><g fill="#20355b" fill-opacity="1"><g transform="translate(1.671629, 82.127612)"><g><path d="M 25.03125 1.0625 C 20.550781 1.0625 16.695312 0.328125 13.46875 -1.140625 C 10.238281 -2.617188 7.742188 -4.71875 5.984375 -7.4375 C 4.234375 -10.15625 3.359375 -13.347656 3.359375 -17.015625 L 15.265625 -17.015625 C 15.265625 -14.472656 16.140625 -12.488281 17.890625 -11.0625 C 19.648438 -9.632812 22.003906 -8.921875 24.953125 -8.921875 C 27.492188 -8.921875 29.5 -9.414062 30.96875 -10.40625 C 32.445312 -11.40625 33.1875 -12.796875 33.1875 -14.578125 C 33.1875 -16.453125 32.296875 -17.972656 30.515625 -19.140625 C 28.734375 -20.316406 25.960938 -21.3125 22.203125 -22.125 C 15.941406 -23.445312 11.3125 -25.457031 8.3125 -28.15625 C 5.3125 -30.851562 3.8125 -34.363281 3.8125 -38.6875 C 3.8125 -43.5625 5.59375 -47.410156 9.15625 -50.234375 C 12.71875 -53.054688 17.578125 -54.46875 23.734375 -54.46875 C 27.953125 -54.46875 31.613281 -53.742188 34.71875 -52.296875 C 37.820312 -50.847656 40.222656 -48.8125 41.921875 -46.1875 C 43.628906 -43.570312 44.484375 -40.457031 44.484375 -36.84375 L 32.8125 -36.84375 C 32.8125 -39.238281 32.019531 -41.125 30.4375 -42.5 C 28.863281 -43.875 26.675781 -44.5625 23.875 -44.5625 C 21.332031 -44.5625 19.320312 -44.0625 17.84375 -43.0625 C 16.375 -42.070312 15.640625 -40.6875 15.640625 -38.90625 C 15.640625 -37.28125 16.453125 -35.90625 18.078125 -34.78125 C 19.710938 -33.664062 22.5625 -32.625 26.625 -31.65625 C 33.289062 -30.082031 38.097656 -27.972656 41.046875 -25.328125 C 43.992188 -22.679688 45.46875 -19.25 45.46875 -15.03125 C 45.46875 -10 43.648438 -6.054688 40.015625 -3.203125 C 36.378906 -0.359375 31.382812 1.0625 25.03125 1.0625 Z M 25.03125 1.0625 "/></g></g></g><g fill="#20355b" fill-opacity="1"><g transform="translate(50.57768, 82.127612)"><g><path d="M 24.71875 1.0625 C 20.445312 1.0625 16.671875 0.175781 13.390625 -1.59375 C 10.109375 -3.375 7.550781 -5.851562 5.71875 -9.03125 C 3.882812 -12.21875 2.96875 -15.894531 2.96875 -20.0625 C 2.96875 -24.238281 3.894531 -27.898438 5.75 -31.046875 C 7.613281 -34.203125 10.1875 -36.671875 13.46875 -38.453125 C 16.75 -40.234375 20.550781 -41.125 24.875 -41.125 C 29.445312 -41.125 33.398438 -40.101562 36.734375 -38.0625 C 40.066406 -36.03125 42.609375 -33.179688 44.359375 -29.515625 C 46.117188 -25.859375 46.875 -21.585938 46.625 -16.703125 L 14.5 -16.703125 C 15.050781 -13.960938 16.269531 -11.863281 18.15625 -10.40625 C 20.039062 -8.957031 22.304688 -8.234375 24.953125 -8.234375 C 26.878906 -8.234375 28.644531 -8.601562 30.25 -9.34375 C 31.851562 -10.082031 33.140625 -11.113281 34.109375 -12.4375 L 45.859375 -12.4375 C 44.128906 -8.21875 41.40625 -4.910156 37.6875 -2.515625 C 33.976562 -0.128906 29.65625 1.0625 24.71875 1.0625 Z M 14.578125 -24.03125 L 35.40625 -24.03125 C 34.738281 -26.476562 33.503906 -28.398438 31.703125 -29.796875 C 29.898438 -31.191406 27.648438 -31.890625 24.953125 -31.890625 C 22.410156 -31.890625 20.207031 -31.191406 18.34375 -29.796875 C 16.488281 -28.398438 15.234375 -26.476562 14.578125 -24.03125 Z M 14.578125 -24.03125 "/></g></g></g><g fill="#20355b" fill-opacity="1"><g transform="translate(100.094103, 82.127612)"><g><path d="M 5.796875 0 L 5.796875 -40.0625 L 17.390625 -40.0625 L 17.390625 0 Z M 4.125 -53.03125 C 4.125 -55.164062 4.820312 -56.90625 6.21875 -58.25 C 7.613281 -59.601562 9.40625 -60.28125 11.59375 -60.28125 C 13.832031 -60.28125 15.640625 -59.601562 17.015625 -58.25 C 18.390625 -56.90625 19.078125 -55.164062 19.078125 -53.03125 C 19.078125 -50.894531 18.390625 -49.148438 17.015625 -47.796875 C 15.640625 -46.453125 13.832031 -45.78125 11.59375 -45.78125 C 9.40625 -45.78125 7.613281 -46.453125 6.21875 -47.796875 C 4.820312 -49.148438 4.125 -50.894531 4.125 -53.03125 Z M 4.125 -53.03125 "/></g></g></g><g fill="#20355b" fill-opacity="1"><g transform="translate(123.288233, 82.127612)"><g><path d="M 2.90625 0 L 2.90625 -7.9375 L 22.65625 -30.59375 L 3.59375 -30.59375 L 3.59375 -40.0625 L 37.6875 -40.0625 L 37.6875 -32.203125 L 18.15625 -9.53125 L 38.140625 -9.53125 L 38.140625 0 Z M 2.90625 0 "/></g></g></g><g fill="#20355b" fill-opacity="1"><g transform="translate(164.335754, 82.127612)"><g><path d="M 21.75 1.0625 C 16.5625 1.0625 12.476562 -0.578125 9.5 -3.859375 C 6.519531 -7.140625 5.03125 -11.550781 5.03125 -17.09375 L 5.03125 -40.0625 L 16.625 -40.0625 L 16.625 -18.234375 C 16.625 -15.285156 17.320312 -12.992188 18.71875 -11.359375 C 20.125 -9.734375 22.046875 -8.921875 24.484375 -8.921875 C 27.128906 -8.921875 29.238281 -9.835938 30.8125 -11.671875 C 32.394531 -13.503906 33.1875 -16 33.1875 -19.15625 L 33.1875 -40.0625 L 44.78125 -40.0625 L 44.78125 0 L 36.171875 0 L 34.9375 -4.5 C 33.363281 -2.613281 31.429688 -1.210938 29.140625 -0.296875 C 26.859375 0.609375 24.394531 1.0625 21.75 1.0625 Z M 21.75 1.0625 "/></g></g></g><g fill="#20355b" fill-opacity="1"><g transform="translate(214.920313, 82.127612)"><g><path d="M 5.796875 0 L 5.796875 -40.0625 L 14.421875 -40.0625 L 15.953125 -34.71875 C 17.273438 -36.59375 18.898438 -37.953125 20.828125 -38.796875 C 22.765625 -39.640625 25.207031 -40.0625 28.15625 -40.0625 L 32.5 -40.0625 L 32.5 -29.53125 L 28.078125 -29.53125 C 24.773438 -29.53125 22.164062 -28.640625 20.25 -26.859375 C 18.34375 -25.078125 17.390625 -22.023438 17.390625 -17.703125 L 17.390625 0 Z M 5.796875 0 "/></g></g></g><g fill="#20355b" fill-opacity="1"><g transform="translate(250.016694, 82.127612)"><g><path d="M 24.71875 1.0625 C 20.445312 1.0625 16.671875 0.175781 13.390625 -1.59375 C 10.109375 -3.375 7.550781 -5.851562 5.71875 -9.03125 C 3.882812 -12.21875 2.96875 -15.894531 2.96875 -20.0625 C 2.96875 -24.238281 3.894531 -27.898438 5.75 -31.046875 C 7.613281 -34.203125 10.1875 -36.671875 13.46875 -38.453125 C 16.75 -40.234375 20.550781 -41.125 24.875 -41.125 C 29.445312 -41.125 33.398438 -40.101562 36.734375 -38.0625 C 40.066406 -36.03125 42.609375 -33.179688 44.359375 -29.515625 C 46.117188 -25.859375 46.875 -21.585938 46.625 -16.703125 L 14.5 -16.703125 C 15.050781 -13.960938 16.269531 -11.863281 18.15625 -10.40625 C 20.039062 -8.957031 22.304688 -8.234375 24.953125 -8.234375 C 26.878906 -8.234375 28.644531 -8.601562 30.25 -9.34375 C 31.851562 -10.082031 33.140625 -11.113281 34.109375 -12.4375 L 45.859375 -12.4375 C 44.128906 -8.21875 41.40625 -4.910156 37.6875 -2.515625 C 33.976562 -0.128906 29.65625 1.0625 24.71875 1.0625 Z M 14.578125 -24.03125 L 35.40625 -24.03125 C 34.738281 -26.476562 33.503906 -28.398438 31.703125 -29.796875 C 29.898438 -31.191406 27.648438 -31.890625 24.953125 -31.890625 C 22.410156 -31.890625 20.207031 -31.191406 18.34375 -29.796875 C 16.488281 -28.398438 15.234375 -26.476562 14.578125 -24.03125 Z M 14.578125 -24.03125 "/></g></g></g><g fill="#20355b" fill-opacity="1"><g transform="translate(299.533117, 82.127612)"><g><path d="M 21.203125 1.0625 C 17.546875 1.0625 14.351562 0.476562 11.625 -0.6875 C 8.90625 -1.851562 6.796875 -3.476562 5.296875 -5.5625 C 3.796875 -7.65625 3.046875 -10.097656 3.046875 -12.890625 L 14.421875 -12.890625 C 14.472656 -11.265625 15.109375 -9.96875 16.328125 -9 C 17.546875 -8.03125 19.222656 -7.546875 21.359375 -7.546875 C 23.191406 -7.546875 24.613281 -7.890625 25.625 -8.578125 C 26.644531 -9.265625 27.15625 -10.195312 27.15625 -11.375 C 27.15625 -12.644531 26.46875 -13.695312 25.09375 -14.53125 C 23.726562 -15.375 21.492188 -16.050781 18.390625 -16.5625 C 13.304688 -17.476562 9.566406 -18.953125 7.171875 -20.984375 C 4.785156 -23.015625 3.59375 -25.6875 3.59375 -29 C 3.59375 -32.914062 5.050781 -35.914062 7.96875 -38 C 10.894531 -40.082031 15.054688 -41.125 20.453125 -41.125 C 25.785156 -41.125 29.960938 -39.976562 32.984375 -37.6875 C 36.015625 -35.394531 37.660156 -32.140625 37.921875 -27.921875 L 26.859375 -27.921875 C 26.753906 -29.453125 26.128906 -30.632812 24.984375 -31.46875 C 23.835938 -32.3125 22.300781 -32.734375 20.375 -32.734375 C 18.644531 -32.734375 17.28125 -32.398438 16.28125 -31.734375 C 15.289062 -31.078125 14.796875 -30.164062 14.796875 -29 C 14.796875 -27.769531 15.441406 -26.8125 16.734375 -26.125 C 18.035156 -25.445312 20.390625 -24.75 23.796875 -24.03125 C 33.671875 -22.050781 38.609375 -17.804688 38.609375 -11.296875 C 38.609375 -7.472656 37.066406 -4.457031 33.984375 -2.25 C 30.910156 -0.0390625 26.648438 1.0625 21.203125 1.0625 Z M 21.203125 1.0625 "/></g></g></g></g></g><g clip-path="url(#5c6b9d735a)"><g clip-path="url(#aec0664c47)"><g transform="matrix(1, 0, 0, 1, 115, 214)"><g clip-path="url(#a2e4a0429c)"><g clip-path="url(#16acdfa51b)"><g clip-path="url(#4ff1910645)"><path fill="#16508e" d="M 0.84375 0.0390625 L 24.378906 0.0390625 L 24.378906 19.535156 L 0.84375 19.535156 Z M 0.84375 0.0390625 " fill-opacity="1" fill-rule="nonzero"/></g></g></g></g></g></g><g clip-path="url(#19a693ff03)"><g clip-path="url(#dd58fe4325)"><path fill="url(#fe62b62e84)" d="M 100.847656 7.621094 L 100.847656 213.871094 L 280.847656 213.871094 L 280.847656 7.621094 Z M 100.847656 7.621094 " fill-rule="nonzero"/></g></g><g transform="matrix(1, 0, 0, 1, 0, 276)"><g clip-path="url(#e9521a23d1)"><g fill="#ff5757" fill-opacity="1"><g transform="translate(0.0311714, 78.609825)"><g><path d="M 0.671875 0 L 21.625 -52.734375 L 33.375 -52.734375 L 54.328125 0 L 41.515625 0 L 37.96875 -9.109375 L 17.03125 -9.109375 L 13.484375 0 Z M 20.109375 -18.53125 L 34.953125 -18.53125 L 27.5 -37.828125 Z M 20.109375 -18.53125 "/></g></g></g><g fill="#ff5757" fill-opacity="1"><g transform="translate(55.022497, 78.609825)"><g><path d="M 5.71875 0 L 5.71875 -55.75 L 17.171875 -55.75 L 17.171875 0 Z M 5.71875 0 "/></g></g></g><g fill="#ff5757" fill-opacity="1"><g transform="translate(77.923007, 78.609825)"><g><path d="M 24.40625 1.0625 C 20.1875 1.0625 16.457031 0.179688 13.21875 -1.578125 C 9.976562 -3.335938 7.453125 -5.785156 5.640625 -8.921875 C 3.835938 -12.066406 2.9375 -15.695312 2.9375 -19.8125 C 2.9375 -23.9375 3.851562 -27.554688 5.6875 -30.671875 C 7.519531 -33.785156 10.054688 -36.21875 13.296875 -37.96875 C 16.535156 -39.726562 20.289062 -40.609375 24.5625 -40.609375 C 29.082031 -40.609375 32.988281 -39.601562 36.28125 -37.59375 C 39.570312 -35.582031 42.082031 -32.769531 43.8125 -29.15625 C 45.539062 -25.539062 46.28125 -21.320312 46.03125 -16.5 L 14.3125 -16.5 C 14.863281 -13.789062 16.066406 -11.71875 17.921875 -10.28125 C 19.785156 -8.851562 22.023438 -8.140625 24.640625 -8.140625 C 26.546875 -8.140625 28.289062 -8.503906 29.875 -9.234375 C 31.457031 -9.960938 32.722656 -10.976562 33.671875 -12.28125 L 45.28125 -12.28125 C 43.570312 -8.113281 40.882812 -4.847656 37.21875 -2.484375 C 33.550781 -0.117188 29.28125 1.0625 24.40625 1.0625 Z M 14.390625 -23.734375 L 34.953125 -23.734375 C 34.304688 -26.140625 33.085938 -28.035156 31.296875 -29.421875 C 29.515625 -30.804688 27.296875 -31.5 24.640625 -31.5 C 22.128906 -31.5 19.957031 -30.804688 18.125 -29.421875 C 16.289062 -28.035156 15.046875 -26.140625 14.390625 -23.734375 Z M 14.390625 -23.734375 "/></g></g></g><g fill="#ff5757" fill-opacity="1"><g transform="translate(126.812562, 78.609825)"><g><path d="M 5.71875 0 L 5.71875 -39.5625 L 14.234375 -39.5625 L 15.75 -34.28125 C 17.050781 -36.132812 18.65625 -37.476562 20.5625 -38.3125 C 22.476562 -39.144531 24.890625 -39.5625 27.796875 -39.5625 L 32.09375 -39.5625 L 32.09375 -29.15625 L 27.71875 -29.15625 C 24.457031 -29.15625 21.882812 -28.273438 20 -26.515625 C 18.113281 -24.765625 17.171875 -21.753906 17.171875 -17.484375 L 17.171875 0 Z M 5.71875 0 "/></g></g></g><g fill="#ff5757" fill-opacity="1"><g transform="translate(161.464631, 78.609825)"><g><path d="M 24.78125 0 C 19.757812 0 15.90625 -1.289062 13.21875 -3.875 C 10.53125 -6.46875 9.1875 -10.175781 9.1875 -15 L 9.1875 -30.21875 L 1.5 -30.21875 L 1.5 -39.5625 L 5.046875 -39.5625 C 7.203125 -39.5625 8.671875 -39.910156 9.453125 -40.609375 C 10.234375 -41.316406 10.773438 -42.671875 11.078125 -44.671875 L 11.75 -49.796875 L 20.640625 -49.796875 L 20.640625 -39.5625 L 31.5 -39.5625 L 31.5 -30.21875 L 20.640625 -30.21875 L 20.640625 -16.71875 C 20.640625 -12.207031 22.851562 -9.953125 27.28125 -9.953125 L 32.015625 -9.953125 L 32.015625 0 Z M 24.78125 0 "/></g></g></g><g fill="#ff5757" fill-opacity="1"><g transform="translate(196.644013, 78.609825)"><g/></g></g><g fill="#ff5757" fill-opacity="1"><g transform="translate(214.346714, 78.609825)"><g><path d="M 0.671875 0 L 21.625 -52.734375 L 33.375 -52.734375 L 54.328125 0 L 41.515625 0 L 37.96875 -9.109375 L 17.03125 -9.109375 L 13.484375 0 Z M 20.109375 -18.53125 L 34.953125 -18.53125 L 27.5 -37.828125 Z M 20.109375 -18.53125 "/></g></g></g><g fill="#ff5757" fill-opacity="1"><g transform="translate(269.338039, 78.609825)"><g><path d="M 29.6875 1.0625 C 27.226562 1.0625 24.941406 0.695312 22.828125 -0.03125 C 20.722656 -0.757812 18.835938 -1.78125 17.171875 -3.09375 L 17.171875 15.0625 L 5.71875 15.0625 L 5.71875 -39.5625 L 14.234375 -39.5625 L 15.515625 -35.03125 C 17.273438 -36.789062 19.359375 -38.160156 21.765625 -39.140625 C 24.179688 -40.117188 26.820312 -40.609375 29.6875 -40.609375 C 33.65625 -40.609375 37.144531 -39.71875 40.15625 -37.9375 C 43.164062 -36.15625 45.535156 -33.707031 47.265625 -30.59375 C 49.003906 -27.476562 49.875 -23.882812 49.875 -19.8125 C 49.875 -15.75 49.003906 -12.144531 47.265625 -9 C 45.535156 -5.863281 43.164062 -3.398438 40.15625 -1.609375 C 37.144531 0.171875 33.65625 1.0625 29.6875 1.0625 Z M 16.71875 -19.8125 C 16.71875 -16.601562 17.734375 -13.96875 19.765625 -11.90625 C 21.804688 -9.84375 24.4375 -8.8125 27.65625 -8.8125 C 30.914062 -8.8125 33.550781 -9.84375 35.5625 -11.90625 C 37.570312 -13.96875 38.578125 -16.601562 38.578125 -19.8125 C 38.578125 -23.03125 37.570312 -25.664062 35.5625 -27.71875 C 33.550781 -29.78125 30.914062 -30.8125 27.65625 -30.8125 C 24.4375 -30.8125 21.804688 -29.78125 19.765625 -27.71875 C 17.734375 -25.664062 16.71875 -23.03125 16.71875 -19.8125 Z M 16.71875 -19.8125 "/></g></g></g><g fill="#ff5757" fill-opacity="1"><g transform="translate(322.14479, 78.609825)"><g><path d="M 29.6875 1.0625 C 27.226562 1.0625 24.941406 0.695312 22.828125 -0.03125 C 20.722656 -0.757812 18.835938 -1.78125 17.171875 -3.09375 L 17.171875 15.0625 L 5.71875 15.0625 L 5.71875 -39.5625 L 14.234375 -39.5625 L 15.515625 -35.03125 C 17.273438 -36.789062 19.359375 -38.160156 21.765625 -39.140625 C 24.179688 -40.117188 26.820312 -40.609375 29.6875 -40.609375 C 33.65625 -40.609375 37.144531 -39.71875 40.15625 -37.9375 C 43.164062 -36.15625 45.535156 -33.707031 47.265625 -30.59375 C 49.003906 -27.476562 49.875 -23.882812 49.875 -19.8125 C 49.875 -15.75 49.003906 -12.144531 47.265625 -9 C 45.535156 -5.863281 43.164062 -3.398438 40.15625 -1.609375 C 37.144531 0.171875 33.65625 1.0625 29.6875 1.0625 Z M 16.71875 -19.8125 C 16.71875 -16.601562 17.734375 -13.96875 19.765625 -11.90625 C 21.804688 -9.84375 24.4375 -8.8125 27.65625 -8.8125 C 30.914062 -8.8125 33.550781 -9.84375 35.5625 -11.90625 C 37.570312 -13.96875 38.578125 -16.601562 38.578125 -19.8125 C 38.578125 -23.03125 37.570312 -25.664062 35.5625 -27.71875 C 33.550781 -29.78125 30.914062 -30.8125 27.65625 -30.8125 C 24.4375 -30.8125 21.804688 -29.78125 19.765625 -27.71875 C 17.734375 -25.664062 16.71875 -23.03125 16.71875 -19.8125 Z M 16.71875 -19.8125 "/></g></g></g></g></g></svg>